<svg width="201" height="48" viewBox="0 0 201 48" fill="none" xmlns="http://www.w3.org/2000/svg">
<path d="M68.496 12.6H72.272V35H68.496V12.6ZM70.736 15.928V12.6H75.248C76.8693 12.6 78.2773 12.888 79.472 13.464C80.688 14.0187 81.6267 14.8187 82.288 15.864C82.9493 16.888 83.28 18.1147 83.28 19.544C83.28 20.9733 82.9493 22.2107 82.288 23.256C81.6267 24.3013 80.688 25.112 79.472 25.688C78.2773 26.2427 76.8693 26.52 75.248 26.52H70.736V23.192H75.248C76.5493 23.192 77.5947 22.8827 78.384 22.264C79.1733 21.6453 79.568 20.7387 79.568 19.544C79.568 18.3493 79.1733 17.4533 78.384 16.856C77.5947 16.2373 76.5493 15.928 75.248 15.928H70.736ZM89.507 20.28V35H86.083V20.28H89.507ZM93.891 23.96C93.571 23.704 93.2723 23.512 92.995 23.384C92.7177 23.256 92.3657 23.192 91.939 23.192C91.363 23.192 90.8937 23.3413 90.531 23.64C90.1683 23.9387 89.9017 24.3547 89.731 24.888C89.5817 25.4 89.507 26.008 89.507 26.712L88.355 26.04C88.355 24.8667 88.5683 23.832 88.995 22.936C89.443 22.0187 90.0083 21.2933 90.691 20.76C91.395 20.2267 92.1203 19.96 92.867 19.96C93.4003 19.96 93.9017 20.0453 94.371 20.216C94.8403 20.3653 95.235 20.6427 95.555 21.048L93.891 23.96ZM96.338 27.64C96.338 26.1253 96.6793 24.792 97.362 23.64C98.066 22.488 99.0153 21.592 100.21 20.952C101.405 20.2907 102.759 19.96 104.274 19.96C105.789 19.96 107.133 20.2907 108.306 20.952C109.501 21.592 110.45 22.488 111.154 23.64C111.858 24.792 112.21 26.1253 112.21 27.64C112.21 29.1333 111.858 30.4667 111.154 31.64C110.45 32.792 109.501 33.6987 108.306 34.36C107.133 35 105.789 35.32 104.274 35.32C102.759 35.32 101.405 35 100.21 34.36C99.0153 33.6987 98.066 32.792 97.362 31.64C96.6793 30.4667 96.338 29.1333 96.338 27.64ZM99.89 27.64C99.89 28.5573 100.082 29.368 100.466 30.072C100.85 30.7547 101.373 31.2987 102.034 31.704C102.695 32.088 103.442 32.28 104.274 32.28C105.085 32.28 105.821 32.088 106.482 31.704C107.165 31.2987 107.698 30.7547 108.082 30.072C108.466 29.368 108.658 28.5573 108.658 27.64C108.658 26.7227 108.466 25.912 108.082 25.208C107.698 24.504 107.165 23.96 106.482 23.576C105.821 23.192 105.085 23 104.274 23C103.442 23 102.695 23.192 102.034 23.576C101.373 23.96 100.85 24.504 100.466 25.208C100.082 25.912 99.89 26.7227 99.89 27.64ZM110.35 16.088V12.6H125.966V16.088H120.046V35H116.238V16.088H110.35ZM124.119 27.64C124.119 26.1253 124.461 24.792 125.143 23.64C125.847 22.488 126.797 21.592 127.991 20.952C129.186 20.2907 130.541 19.96 132.055 19.96C133.57 19.96 134.914 20.2907 136.087 20.952C137.282 21.592 138.231 22.488 138.935 23.64C139.639 24.792 139.991 26.1253 139.991 27.64C139.991 29.1333 139.639 30.4667 138.935 31.64C138.231 32.792 137.282 33.6987 136.087 34.36C134.914 35 133.57 35.32 132.055 35.32C130.541 35.32 129.186 35 127.991 34.36C126.797 33.6987 125.847 32.792 125.143 31.64C124.461 30.4667 124.119 29.1333 124.119 27.64ZM127.671 27.64C127.671 28.5573 127.863 29.368 128.247 30.072C128.631 30.7547 129.154 31.2987 129.815 31.704C130.477 32.088 131.223 32.28 132.055 32.28C132.866 32.28 133.602 32.088 134.263 31.704C134.946 31.2987 135.479 30.7547 135.863 30.072C136.247 29.368 136.439 28.5573 136.439 27.64C136.439 26.7227 136.247 25.912 135.863 25.208C135.479 24.504 134.946 23.96 134.263 23.576C133.602 23.192 132.866 23 132.055 23C131.223 23 130.477 23.192 129.815 23.576C129.154 23.96 128.631 24.504 128.247 25.208C127.863 25.912 127.671 26.7227 127.671 27.64ZM141.223 20.28H149.575V23.32H141.223V20.28ZM143.687 15.16H147.111V35H143.687V15.16ZM164.982 20.28L155.382 42.04H151.702L155.542 33.272L149.622 20.28H153.59L158.294 31.928L156.662 31.832L161.27 20.28H164.982ZM170.412 42.04H166.924V20.28H170.412V42.04ZM182.604 27.64C182.604 29.2613 182.273 30.6587 181.612 31.832C180.95 32.984 180.076 33.8693 178.988 34.488C177.9 35.0853 176.716 35.384 175.436 35.384C174.177 35.384 173.078 35.0747 172.14 34.456C171.222 33.816 170.508 32.92 169.996 31.768C169.505 30.5947 169.26 29.2187 169.26 27.64C169.26 26.04 169.505 24.664 169.996 23.512C170.508 22.36 171.222 21.4747 172.14 20.856C173.078 20.216 174.177 19.896 175.436 19.896C176.716 19.896 177.9 20.2053 178.988 20.824C180.076 21.4213 180.95 22.296 181.612 23.448C182.273 24.6 182.604 25.9973 182.604 27.64ZM179.02 27.64C179.02 26.6587 178.817 25.8267 178.412 25.144C178.006 24.44 177.462 23.9173 176.78 23.576C176.118 23.2133 175.382 23.032 174.572 23.032C173.91 23.032 173.26 23.2133 172.62 23.576C171.98 23.9173 171.446 24.4293 171.02 25.112C170.614 25.7947 170.412 26.6373 170.412 27.64C170.412 28.6427 170.614 29.4853 171.02 30.168C171.446 30.8507 171.98 31.3733 172.62 31.736C173.26 32.0773 173.91 32.248 174.572 32.248C175.382 32.248 176.118 32.0773 176.78 31.736C177.462 31.3733 178.006 30.8507 178.412 30.168C178.817 29.464 179.02 28.6213 179.02 27.64ZM192.296 35.32C190.802 35.32 189.48 35 188.328 34.36C187.197 33.72 186.322 32.824 185.704 31.672C185.085 30.52 184.776 29.176 184.776 27.64C184.776 26.0827 185.085 24.728 185.704 23.576C186.344 22.424 187.24 21.5387 188.391 20.92C189.544 20.28 190.898 19.96 192.456 19.96C194.013 19.96 195.336 20.2587 196.424 20.856C197.512 21.4533 198.344 22.3173 198.92 23.448C199.517 24.5573 199.816 25.9013 199.816 27.48C199.816 27.6507 199.805 27.832 199.784 28.024C199.784 28.216 199.773 28.3547 199.752 28.44H186.824V26.072H196.808L195.752 27.544C195.816 27.416 195.88 27.2453 195.944 27.032C196.029 26.7973 196.072 26.6053 196.072 26.456C196.072 25.6667 195.912 24.984 195.592 24.408C195.293 23.832 194.866 23.384 194.312 23.064C193.778 22.744 193.149 22.584 192.424 22.584C191.549 22.584 190.802 22.776 190.184 23.16C189.565 23.544 189.096 24.0987 188.776 24.824C188.456 25.5493 188.285 26.4453 188.264 27.512C188.264 28.5787 188.424 29.4853 188.744 30.232C189.064 30.9573 189.533 31.512 190.152 31.896C190.792 32.28 191.56 32.472 192.456 32.472C193.394 32.472 194.216 32.28 194.92 31.896C195.624 31.512 196.21 30.9253 196.68 30.136L199.656 31.352C198.888 32.6747 197.896 33.6667 196.68 34.328C195.464 34.9893 194.002 35.32 192.296 35.32Z" fill="white"/>
<g filter="url(#filter0_i_79_83)">
<rect width="48" height="48" rx="12" fill="#323232"/>
</g>
<rect x="1.5" y="1.5" width="45" height="45" rx="10.5" stroke="white" stroke-width="3"/>
<g filter="url(#filter1_d_79_83)">
<path d="M14.9128 17.2842H18.9688V34.0842H14.9128V17.2842ZM17.4568 20.6202V17.2842H20.7448C22.1688 17.2842 23.3608 17.5082 24.3208 17.9562C25.2968 18.3882 26.0328 19.0122 26.5288 19.8282C27.0248 20.6442 27.2728 21.6282 27.2728 22.7802C27.2728 23.9002 27.0248 24.8762 26.5288 25.7082C26.0328 26.5242 25.2968 27.1562 24.3208 27.6042C23.3608 28.0362 22.1688 28.2522 20.7448 28.2522H17.4568V24.9162H20.7448C21.5608 24.9162 22.2008 24.7322 22.6648 24.3642C23.1288 23.9962 23.3608 23.4682 23.3608 22.7802C23.3608 22.0762 23.1288 21.5402 22.6648 21.1722C22.2008 20.8042 21.5608 20.6202 20.7448 20.6202H17.4568Z" fill="white"/>
<path d="M28.92 15.9705H34.44V17.7705H28.92V15.9705ZM30.72 12.1305H32.64V27.0105H30.72V12.1305Z" fill="white"/>
</g>
<defs>
<filter id="filter0_i_79_83" x="0" y="0" width="48" height="48" filterUnits="userSpaceOnUse" color-interpolation-filters="sRGB">
<feFlood flood-opacity="0" result="BackgroundImageFix"/>
<feBlend mode="normal" in="SourceGraphic" in2="BackgroundImageFix" result="shape"/>
<feColorMatrix in="SourceAlpha" type="matrix" values="0 0 0 0 0 0 0 0 0 0 0 0 0 0 0 0 0 0 127 0" result="hardAlpha"/>
<feMorphology radius="4" operator="dilate" in="SourceAlpha" result="effect1_innerShadow_79_83"/>
<feOffset/>
<feGaussianBlur stdDeviation="21.8"/>
<feComposite in2="hardAlpha" operator="arithmetic" k2="-1" k3="1"/>
<feColorMatrix type="matrix" values="0 0 0 0 0.670833 0 0 0 0 0.341667 0 0 0 0 1 0 0 0 0.25 0"/>
<feBlend mode="normal" in2="shape" result="effect1_innerShadow_79_83"/>
</filter>
<filter id="filter1_d_79_83" x="5.91284" y="3.13049" width="37.5272" height="39.9537" filterUnits="userSpaceOnUse" color-interpolation-filters="sRGB">
<feFlood flood-opacity="0" result="BackgroundImageFix"/>
<feColorMatrix in="SourceAlpha" type="matrix" values="0 0 0 0 0 0 0 0 0 0 0 0 0 0 0 0 0 0 127 0" result="hardAlpha"/>
<feOffset/>
<feGaussianBlur stdDeviation="4.5"/>
<feComposite in2="hardAlpha" operator="out"/>
<feColorMatrix type="matrix" values="0 0 0 0 0.369201 0 0 0 0 0.221736 0 0 0 0 0.516667 0 0 0 1 0"/>
<feBlend mode="normal" in2="BackgroundImageFix" result="effect1_dropShadow_79_83"/>
<feBlend mode="normal" in="SourceGraphic" in2="effect1_dropShadow_79_83" result="shape"/>
</filter>
</defs>
</svg>
