<svg width="48" height="48" viewBox="0 0 48 48" fill="none" xmlns="http://www.w3.org/2000/svg">
<g filter="url(#filter0_i_79_82)">
<rect width="48" height="48" rx="12" fill="#323232"/>
</g>
<rect x="1.5" y="1.5" width="45" height="45" rx="10.5" stroke="white" stroke-width="3"/>
<g filter="url(#filter1_d_79_82)">
<path d="M14.9128 17.2842H18.9688V34.0842H14.9128V17.2842ZM17.4568 20.6202V17.2842H20.7448C22.1688 17.2842 23.3608 17.5082 24.3208 17.9562C25.2968 18.3882 26.0328 19.0122 26.5288 19.8282C27.0248 20.6442 27.2728 21.6282 27.2728 22.7802C27.2728 23.9002 27.0248 24.8762 26.5288 25.7082C26.0328 26.5242 25.2968 27.1562 24.3208 27.6042C23.3608 28.0362 22.1688 28.2522 20.7448 28.2522H17.4568V24.9162H20.7448C21.5608 24.9162 22.2008 24.7322 22.6648 24.3642C23.1288 23.9962 23.3608 23.4682 23.3608 22.7802C23.3608 22.0762 23.1288 21.5402 22.6648 21.1722C22.2008 20.8042 21.5608 20.6202 20.7448 20.6202H17.4568Z" fill="white"/>
<path d="M28.92 15.9705H34.44V17.7705H28.92V15.9705ZM30.72 12.1305H32.64V27.0105H30.72V12.1305Z" fill="white"/>
</g>
<defs>
<filter id="filter0_i_79_82" x="0" y="0" width="48" height="48" filterUnits="userSpaceOnUse" color-interpolation-filters="sRGB">
<feFlood flood-opacity="0" result="BackgroundImageFix"/>
<feBlend mode="normal" in="SourceGraphic" in2="BackgroundImageFix" result="shape"/>
<feColorMatrix in="SourceAlpha" type="matrix" values="0 0 0 0 0 0 0 0 0 0 0 0 0 0 0 0 0 0 127 0" result="hardAlpha"/>
<feMorphology radius="4" operator="dilate" in="SourceAlpha" result="effect1_innerShadow_79_82"/>
<feOffset/>
<feGaussianBlur stdDeviation="21.8"/>
<feComposite in2="hardAlpha" operator="arithmetic" k2="-1" k3="1"/>
<feColorMatrix type="matrix" values="0 0 0 0 0.670833 0 0 0 0 0.341667 0 0 0 0 1 0 0 0 0.25 0"/>
<feBlend mode="normal" in2="shape" result="effect1_innerShadow_79_82"/>
</filter>
<filter id="filter1_d_79_82" x="5.91284" y="3.13049" width="37.5272" height="39.9537" filterUnits="userSpaceOnUse" color-interpolation-filters="sRGB">
<feFlood flood-opacity="0" result="BackgroundImageFix"/>
<feColorMatrix in="SourceAlpha" type="matrix" values="0 0 0 0 0 0 0 0 0 0 0 0 0 0 0 0 0 0 127 0" result="hardAlpha"/>
<feOffset/>
<feGaussianBlur stdDeviation="4.5"/>
<feComposite in2="hardAlpha" operator="out"/>
<feColorMatrix type="matrix" values="0 0 0 0 0.369201 0 0 0 0 0.221736 0 0 0 0 0.516667 0 0 0 1 0"/>
<feBlend mode="normal" in2="BackgroundImageFix" result="effect1_dropShadow_79_82"/>
<feBlend mode="normal" in="SourceGraphic" in2="effect1_dropShadow_79_82" result="shape"/>
</filter>
</defs>
</svg>
