<svg width="34" height="34" viewBox="0 0 34 34" fill="none" xmlns="http://www.w3.org/2000/svg">
<path d="M15.3613 25H18.1388V15H15.3613V25ZM16.6663 11.8333C17.0832 11.8333 17.4329 11.6949 17.7154 11.4179C17.9976 11.1413 18.1388 10.7982 18.1388 10.3888C18.1388 9.96375 17.9978 9.6075 17.7158 9.32C17.4336 9.0325 17.084 8.88875 16.6671 8.88875C16.2501 8.88875 15.9004 9.0325 15.6179 9.32C15.3357 9.6075 15.1946 9.96375 15.1946 10.3888C15.1946 10.7982 15.3356 11.1413 15.6175 11.4179C15.8997 11.6949 16.2493 11.8333 16.6663 11.8333ZM16.6742 33.3333C14.3733 33.3333 12.2113 32.8958 10.1879 32.0208C8.16459 31.1458 6.3982 29.9538 4.88875 28.4446C3.37958 26.9351 2.1875 25.1681 1.3125 23.1433C0.4375 21.1186 0 18.9551 0 16.6529C0 14.3507 0.4375 12.1871 1.3125 10.1621C2.1875 8.13736 3.37958 6.375 4.88875 4.875C6.3982 3.375 8.16528 2.1875 10.19 1.3125C12.2147 0.4375 14.3782 0 16.6804 0C18.9826 0 21.1463 0.4375 23.1713 1.3125C25.196 2.1875 26.9583 3.375 28.4583 4.875C29.9583 6.375 31.1458 8.13889 32.0208 10.1667C32.8958 12.1944 33.3333 14.3586 33.3333 16.6592C33.3333 18.96 32.8958 21.1221 32.0208 23.1454C31.1458 25.1688 29.9583 26.9333 28.4583 28.4392C26.9583 29.945 25.1944 31.1372 23.1667 32.0158C21.1389 32.8942 18.9747 33.3333 16.6742 33.3333Z" fill="white" fill-opacity="0.88"/>
</svg>
