<svg width="40" height="40" viewBox="0 0 40 40" fill="none" xmlns="http://www.w3.org/2000/svg">
<path d="M8.19333 35C7.31444 35 6.5625 34.687 5.9375 34.0612C5.3125 33.4354 5 32.683 5 31.8041C5 30.9255 5.31292 30.1737 5.93875 29.5487C6.56458 28.9237 7.31694 28.6112 8.19583 28.6112C9.07444 28.6112 9.82625 28.9241 10.4513 29.55C11.0763 30.1758 11.3887 30.928 11.3887 31.8066C11.3887 32.6855 11.0758 33.4375 10.45 34.0625C9.82417 34.6875 9.07194 35 8.19333 35ZM29.1667 35C29.1667 31.6388 28.5371 28.5023 27.2779 25.5904C26.0185 22.6782 24.2869 20.1202 22.0833 17.9166C19.8797 15.713 17.3211 13.9815 14.4075 12.722C11.4942 11.4629 8.35833 10.8333 5 10.8333V6.66663C8.94444 6.66663 12.625 7.40274 16.0417 8.87496C19.4583 10.3472 22.4583 12.375 25.0417 14.9583C27.625 17.5416 29.6528 20.5416 31.125 23.9583C32.5972 27.375 33.3333 31.0555 33.3333 35H29.1667ZM18.6667 35C18.6667 33.0833 18.3121 31.2895 17.6029 29.6187C16.8938 27.9479 15.915 26.4732 14.6667 25.1945C13.4258 23.9168 11.9835 22.9168 10.3396 22.1945C8.69542 21.4723 6.91556 21.1112 5 21.1112V16.9445C7.5 16.9445 9.82639 17.4144 11.9792 18.3541C14.1319 19.2938 16.0153 20.5872 17.6292 22.2341C19.2428 23.8808 20.5135 25.7951 21.4413 27.977C22.3693 30.159 22.8333 32.5 22.8333 35H18.6667Z" fill="white" fill-opacity="0.88"/>
</svg>
