<svg width="44" height="44" viewBox="0 0 44 44" fill="none" xmlns="http://www.w3.org/2000/svg">
<path d="M16.925 25.389H26.2443V22.3333H16.925V25.389ZM16.925 20.8057H33.8833V17.75H16.925V20.8057ZM16.925 16.2224H33.8833V13.1667H16.925V16.2224ZM13.1667 34.5557C12.3417 34.5557 11.6262 34.2526 11.0203 33.6464C10.4141 33.0405 10.111 32.325 10.111 31.5V7.05571C10.111 6.23071 10.4141 5.5151 11.0203 4.90888C11.6262 4.30296 12.3417 4 13.1667 4H37.611C38.436 4 39.1516 4.30296 39.7578 4.90888C40.3637 5.5151 40.6667 6.23071 40.6667 7.05571V31.5C40.6667 32.325 40.3637 33.0405 39.7578 33.6464C39.1516 34.2526 38.436 34.5557 37.611 34.5557H13.1667ZM7.05571 40.6667C6.23071 40.6667 5.5151 40.3637 4.90888 39.7578C4.30296 39.1516 4 38.436 4 37.611V10.111H7.05571V37.611H34.5557V40.6667H7.05571Z" fill="white" fill-opacity="0.88"/>
</svg>
