<svg width="39" height="28" viewBox="0 0 39 28" fill="none" xmlns="http://www.w3.org/2000/svg">
<path d="M2.95469 28C2.14219 28 1.44655 27.7145 0.86775 27.1434C0.28925 26.572 0 25.8853 0 25.0832V5.25H2.95469V25.0832H33.6818V28H2.95469ZM8.86364 22.1668C8.05114 22.1668 7.35564 21.8811 6.77714 21.3097C6.19834 20.7387 5.90894 20.0521 5.90894 19.25V2.91681C5.90894 2.11473 6.19834 1.428 6.77714 0.856626C7.35564 0.285542 8.05114 0 8.86364 0H36.0453C36.8578 0 37.5535 0.285542 38.1322 0.856626C38.7107 1.428 39 2.11473 39 2.91681V19.25C39 20.0521 38.7107 20.7387 38.1322 21.3097C37.5535 21.8811 36.8578 22.1668 36.0453 22.1668H8.86364ZM12.9999 19.25C12.9999 18.1125 12.5986 17.1475 11.7962 16.3551C10.9934 15.5629 10.0159 15.1668 8.86364 15.1668V19.25H12.9999ZM31.9091 19.25H36.0453V15.1668C34.893 15.1668 33.9157 15.5629 33.1132 16.3551C32.3105 17.1475 31.9091 18.1125 31.9091 19.25ZM22.4547 16.3332C23.932 16.3332 25.1876 15.8228 26.2217 14.8019C27.2558 13.7811 27.7729 12.5415 27.7729 11.0832C27.7729 9.62486 27.2558 8.38527 26.2217 7.36444C25.1876 6.3436 23.932 5.83319 22.4547 5.83319C20.9774 5.83319 19.7217 6.3436 18.6876 7.36444C17.6536 8.38527 17.1365 9.62486 17.1365 11.0832C17.1365 12.5415 17.6536 13.7811 18.6876 14.8019C19.7217 15.8228 20.9774 16.3332 22.4547 16.3332ZM8.86364 7C10.0159 7 10.9934 6.60377 11.7962 5.81131C12.5986 5.01915 12.9999 4.05431 12.9999 2.91681H8.86364V7ZM36.0453 7V2.91681H31.9091C31.9091 4.05431 32.3105 5.01915 33.1132 5.81131C33.9157 6.60377 34.893 7 36.0453 7Z" fill="white" fill-opacity="0.88"/>
</svg>
